<svg xmlns="http://www.w3.org/2000/svg" xmlns:xlink="http://www.w3.org/1999/xlink" width="110" height="110"><defs><linearGradient id="d"><stop offset="0" stop-color="#ffdf0c"/><stop offset="1" stop-color="#edce00"/></linearGradient><linearGradient id="c"><stop offset="0" stop-color="#ea2328"/><stop offset="1" stop-color="#d11419"/></linearGradient><linearGradient id="b"><stop offset="0" stop-color="#57d252"/><stop offset="1" stop-color="#37bf32"/></linearGradient><linearGradient id="a"><stop offset="0" stop-color="#595959"/><stop offset="1" stop-color="#2d2d2d"/></linearGradient><linearGradient><stop offset="0"/><stop offset="1" stop-opacity="0"/></linearGradient><linearGradient xlink:href="#a" x1="523.779" y1="279.595" x2="772.246" y2="476.575" gradientUnits="userSpaceOnUse"/><linearGradient xlink:href="#a" gradientUnits="userSpaceOnUse" x1="523.779" y1="279.595" x2="772.246" y2="476.575" gradientTransform="matrix(.869 0 0 .869 97.872 57.647)"/><linearGradient xlink:href="#a" gradientUnits="userSpaceOnUse" x1="523.779" y1="279.595" x2="772.246" y2="476.575" gradientTransform="matrix(.392 0 0 .131 455.042 562.37)"/><linearGradient xlink:href="#a" gradientUnits="userSpaceOnUse" x1="523.779" y1="279.595" x2="772.246" y2="476.575"/><linearGradient xlink:href="#a" gradientUnits="userSpaceOnUse" x1="523.779" y1="279.595" x2="772.246" y2="476.575"/><linearGradient xlink:href="#a" gradientUnits="userSpaceOnUse" x1="523.779" y1="279.595" x2="772.246" y2="476.575" gradientTransform="translate(-692.965 172.736)"/><filter width="1" height="1" x="0" y="0" color-interpolation-filters="sRGB"><feFlood flood-opacity=".997" flood-color="#000" result="flood"/><feComposite in2="SourceGraphic" in="flood" operator="in" result="composite1"/><feGaussianBlur stdDeviation="3" result="blur"/><feOffset result="offset"/><feComposite in2="offset" in="SourceGraphic" result="composite2"/></filter><linearGradient xlink:href="#b" x1="-104.472" y1="610.377" x2="229.762" y2="610.377" gradientUnits="userSpaceOnUse"/><linearGradient xlink:href="#b" gradientUnits="userSpaceOnUse" x1="-104.472" y1="610.377" x2="229.762" y2="610.377"/><linearGradient xlink:href="#b" gradientUnits="userSpaceOnUse" x1="-104.472" y1="610.377" x2="229.762" y2="610.377"/><linearGradient xlink:href="#b" gradientUnits="userSpaceOnUse" x1="-104.472" y1="610.377" x2="229.762" y2="610.377" gradientTransform="translate(3.03 13.132)"/><filter id="g" color-interpolation-filters="sRGB"><feFlood flood-opacity=".997" flood-color="#000" result="flood"/><feComposite in2="SourceGraphic" in="flood" operator="in" result="composite1"/><feGaussianBlur stdDeviation="3" result="blur"/><feOffset result="offset"/><feComposite in2="offset" in="SourceGraphic" result="composite2"/></filter><linearGradient xlink:href="#c" x1="-92.44" y1="609.533" x2="227.078" y2="609.533" gradientUnits="userSpaceOnUse" gradientTransform="translate(-22.223 -18.183)"/><filter id="i" color-interpolation-filters="sRGB"><feFlood flood-opacity=".997" flood-color="#000" result="flood"/><feComposite in2="SourceGraphic" in="flood" operator="in" result="composite1"/><feGaussianBlur stdDeviation="3" result="blur"/><feOffset result="offset"/><feComposite in2="offset" in="SourceGraphic" result="composite2"/></filter><linearGradient xlink:href="#d" x1="-106.63" y1="587.336" x2="218.632" y2="587.336" gradientUnits="userSpaceOnUse" gradientTransform="translate(1.281 3.03)"/><filter id="k" color-interpolation-filters="sRGB"><feFlood flood-opacity=".997" flood-color="#000" result="flood"/><feComposite in2="SourceGraphic" in="flood" operator="in" result="composite1"/><feGaussianBlur stdDeviation="3" result="blur"/><feOffset result="offset"/><feComposite in2="offset" in="SourceGraphic" result="composite2"/></filter><linearGradient xlink:href="#b" gradientUnits="userSpaceOnUse" gradientTransform="translate(3.03 13.132)" x1="-104.472" y1="610.377" x2="229.762" y2="610.377"/><linearGradient xlink:href="#c" gradientUnits="userSpaceOnUse" gradientTransform="translate(-22.223 -18.183)" x1="-92.44" y1="609.533" x2="227.078" y2="609.533"/><linearGradient xlink:href="#d" gradientUnits="userSpaceOnUse" gradientTransform="translate(1.281 3.03)" x1="-106.63" y1="587.336" x2="218.632" y2="587.336"/><linearGradient xlink:href="#a" gradientUnits="userSpaceOnUse" gradientTransform="translate(-692.965 172.736)" x1="523.779" y1="279.595" x2="772.246" y2="476.575"/><linearGradient xlink:href="#a" id="e" gradientUnits="userSpaceOnUse" gradientTransform="translate(-692.965 172.736)" x1="523.779" y1="279.595" x2="772.246" y2="476.575"/><linearGradient xlink:href="#b" id="f" gradientUnits="userSpaceOnUse" gradientTransform="translate(3.03 13.132)" x1="-104.472" y1="610.377" x2="229.762" y2="610.377"/><linearGradient xlink:href="#c" id="h" gradientUnits="userSpaceOnUse" gradientTransform="translate(-22.223 -18.183)" x1="-92.44" y1="609.533" x2="227.078" y2="609.533"/><linearGradient xlink:href="#d" id="j" gradientUnits="userSpaceOnUse" gradientTransform="translate(1.281 3.03)" x1="-106.63" y1="587.336" x2="218.632" y2="587.336"/></defs><g><g color="#000" transform="matrix(.214 0 0 .214 43.125 -70.213)"><rect width="420.223" height="310.117" x="-155.563" y="454.352" ry="1.037" fill="#f3f7ff" overflow="visible" enable-background="accumulate"/><path d="M-150.402 443.236c-12.934 0-23.344 10.409-23.344 23.344v292.719c0 12.934 10.409 23.344 23.344 23.344h116.063v31.313c0 .575.457 1.031 1.031 1.031h177.719c.575 0 1.031-.457 1.031-1.031v-31.313h116.063c12.934 0 23.344-10.409 23.344-23.344v-292.719c0-12.934-10.409-23.344-23.344-23.344h-411.906zm14.813 22.219h382.313c4.525 0 8.156 3.662 8.156 8.188v278.625c0 4.525-3.631 8.156-8.156 8.156h-382.313c-4.525 0-8.188-3.631-8.188-8.156v-278.625c0-4.525 3.662-8.188 8.188-8.188z" fill="url(#e)" stroke="#484848" stroke-width="9.356" stroke-linecap="round" stroke-linejoin="round" overflow="visible" enable-background="accumulate"/></g><g color="#000" font-family="Sans"><path style="text-indent:0;text-align:start;line-height:normal;text-transform:none;block-progression:tb;-inkscape-font-specification:Sans" d="M18.07 45.93c2.676 2.811 5.811 4.936 9.623 5.866 4.485 1.47 8.933 3.769 11.468 7.922 3.574 4.562 6.057 10.214 10.71 13.785 3.997 1.244 8.055-.953 11.88-1.936 4.439-.883 8.765-6.158 13.254-2.759 5.395 4.383 9.365 10.287 12.941 16.185-2.009 5.043-5.286-2.77-6.985-4.838-2.403-3.44-5.095-6.791-8.609-9.157-4.045.275-7.143 3.556-11.183 4.147-4.748 1.425-11.166 3.836-15.145-.439-4.927-5.368-7.773-12.443-13.377-17.206-5.11-3.056-11.883-3.538-15.776-8.436-.654-1.116-.491-3.176 1.199-3.135z" fill="url(#f)" overflow="visible" filter="url(#g)" enable-background="accumulate"/><path style="text-indent:0;text-align:start;line-height:normal;text-transform:none;block-progression:tb;-inkscape-font-specification:Sans" d="M-107.067 488.192a7.501 7.501 0 0 0-5.875 12.281c16.1 20.078 40.515 29.046 60.656 39.781s35.551 21.776 39.5 45.469l.156.75.281.719c6.946 17.84 12.064 44.195 22.594 66.563 5.265 11.184 11.997 21.539 21.563 29.125 9.565 7.586 22.005 12.08 36.938 11.594l.25-.031h.219c44.358-4.271 87.742-15.497 129.875-27.844a7.501 7.501 0 1 0-4.219-14.375c-41.71 12.223-84.096 23.107-126.781 27.25-11.738.35-20-2.817-26.969-8.344-7.002-5.553-12.64-13.825-17.313-23.75-9.286-19.724-14.358-45.271-22.063-65.219-5.264-28.728-25.951-43.922-46.969-55.125-21.298-11.352-43.312-20.146-56-35.969a7.501 7.501 0 0 0-5.844-2.875z" transform="matrix(.214 0 0 -.214 46.986 186.128)" fill="url(#h)" overflow="visible" filter="url(#i)" enable-background="accumulate"/><path style="text-indent:0;text-align:start;line-height:normal;text-transform:none;block-progression:tb;-inkscape-font-specification:Sans" d="M19.094 550.093c-8.958-.223-18.577 3.062-28.813 7.438-13.647 5.834-28.353 14.37-42.031 23.188-27.357 17.635-50.688 36.5-50.688 36.5a7.501 7.501 0 1 0 9.438 11.656s22.847-18.431 49.375-35.531c13.264-8.55 27.447-16.728 39.781-22 12.334-5.272 22.892-6.876 26.938-5.531 31.299 10.406 73.514 21.016 108.594 17.906 16.963-1.504 27.994-3.894 38.219-3.094 10.225.8 20.708 4.419 38.25 16.438a7.507 7.507 0 1 0 8.5-12.375c-18.749-12.845-32.45-18.003-45.594-19.031-13.144-1.028-24.659 1.704-40.688 3.125-30.903 2.74-72.278-7.118-102.562-17.188-2.838-.943-5.733-1.426-8.719-1.5z" fill="url(#j)" overflow="visible" filter="url(#k)" enable-background="accumulate" transform="matrix(.214 0 0 .214 40.747 -66.97)"/></g><path d="M95.871 31.126h-44.532l25.562 59.231h18.97z" opacity=".356" fill="#fff"/></g></svg>