<?xml version="1.0" encoding="UTF-8" standalone="no"?>
<!-- Created with Inkscape (http://www.inkscape.org/) -->

<svg
   xmlns:dc="http://purl.org/dc/elements/1.1/"
   xmlns:cc="http://creativecommons.org/ns#"
   xmlns:rdf="http://www.w3.org/1999/02/22-rdf-syntax-ns#"
   xmlns:svg="http://www.w3.org/2000/svg"
   xmlns="http://www.w3.org/2000/svg"
   xmlns:xlink="http://www.w3.org/1999/xlink"
   xmlns:sodipodi="http://sodipodi.sourceforge.net/DTD/sodipodi-0.dtd"
   xmlns:inkscape="http://www.inkscape.org/namespaces/inkscape"
   width="110"
   height="110"
   id="svg2"
   version="1.1"
   inkscape:version="0.48.4 r9939"
   sodipodi:docname="dashkiosk.svg">
  <defs
     id="defs4">
    <linearGradient
       id="linearGradient4018">
      <stop
         style="stop-color:#ffdf0c;stop-opacity:1;"
         offset="0"
         id="stop4020" />
      <stop
         style="stop-color:#edce00;stop-opacity:1;"
         offset="1"
         id="stop4022" />
    </linearGradient>
    <linearGradient
       id="linearGradient3992">
      <stop
         style="stop-color:#ea2328;stop-opacity:1;"
         offset="0"
         id="stop3994" />
      <stop
         style="stop-color:#d11419;stop-opacity:1;"
         offset="1"
         id="stop3996" />
    </linearGradient>
    <linearGradient
       id="linearGradient3946">
      <stop
         style="stop-color:#57d252;stop-opacity:1;"
         offset="0"
         id="stop3948" />
      <stop
         style="stop-color:#37bf32;stop-opacity:1;"
         offset="1"
         id="stop3950" />
    </linearGradient>
    <linearGradient
       id="linearGradient3855">
      <stop
         style="stop-color:#595959;stop-opacity:1;"
         offset="0"
         id="stop3857" />
      <stop
         style="stop-color:#2d2d2d;stop-opacity:1;"
         offset="1"
         id="stop3859" />
    </linearGradient>
    <linearGradient
       id="linearGradient3847">
      <stop
         style="stop-color:#000000;stop-opacity:1;"
         offset="0"
         id="stop3849" />
      <stop
         style="stop-color:#000000;stop-opacity:0;"
         offset="1"
         id="stop3851" />
    </linearGradient>
    <linearGradient
       inkscape:collect="always"
       xlink:href="#linearGradient3855"
       id="linearGradient3861"
       x1="523.7793"
       y1="279.59549"
       x2="772.24634"
       y2="476.57523"
       gradientUnits="userSpaceOnUse" />
    <linearGradient
       inkscape:collect="always"
       xlink:href="#linearGradient3855"
       id="linearGradient3865"
       gradientUnits="userSpaceOnUse"
       x1="523.7793"
       y1="279.59549"
       x2="772.24634"
       y2="476.57523"
       gradientTransform="matrix(0.869247,0,0,0.86904762,97.871626,57.646515)" />
    <linearGradient
       inkscape:collect="always"
       xlink:href="#linearGradient3855"
       id="linearGradient3870"
       gradientUnits="userSpaceOnUse"
       x1="523.7793"
       y1="279.59549"
       x2="772.24634"
       y2="476.57523"
       gradientTransform="matrix(0.39207049,0,0,0.13095238,455.04185,562.3704)" />
    <linearGradient
       inkscape:collect="always"
       xlink:href="#linearGradient3855"
       id="linearGradient3872"
       gradientUnits="userSpaceOnUse"
       x1="523.7793"
       y1="279.59549"
       x2="772.24634"
       y2="476.57523" />
    <linearGradient
       inkscape:collect="always"
       xlink:href="#linearGradient3855"
       id="linearGradient3875"
       gradientUnits="userSpaceOnUse"
       x1="523.7793"
       y1="279.59549"
       x2="772.24634"
       y2="476.57523" />
    <linearGradient
       inkscape:collect="always"
       xlink:href="#linearGradient3855"
       id="linearGradient3878"
       gradientUnits="userSpaceOnUse"
       x1="523.7793"
       y1="279.59549"
       x2="772.24634"
       y2="476.57523"
       gradientTransform="translate(-692.96465,172.73609)" />
    <filter
       id="filter3928"
       inkscape:label="Drop Shadow"
       width="1"
       height="1"
       x="0"
       y="0"
       color-interpolation-filters="sRGB">
      <feFlood
         id="feFlood3930"
         flood-opacity="0.997"
         flood-color="rgb(0,0,0)"
         result="flood" />
      <feComposite
         id="feComposite3932"
         in2="SourceGraphic"
         in="flood"
         operator="in"
         result="composite1" />
      <feGaussianBlur
         id="feGaussianBlur3934"
         stdDeviation="3"
         result="blur" />
      <feOffset
         id="feOffset3936"
         dx="0"
         dy="0"
         result="offset" />
      <feComposite
         id="feComposite3938"
         in2="offset"
         in="SourceGraphic"
         operator="over"
         result="composite2" />
    </filter>
    <linearGradient
       inkscape:collect="always"
       xlink:href="#linearGradient3946"
       id="linearGradient3952"
       x1="-104.472"
       y1="610.37659"
       x2="229.76192"
       y2="610.37659"
       gradientUnits="userSpaceOnUse" />
    <linearGradient
       inkscape:collect="always"
       xlink:href="#linearGradient3946"
       id="linearGradient3955"
       gradientUnits="userSpaceOnUse"
       x1="-104.472"
       y1="610.37659"
       x2="229.76192"
       y2="610.37659" />
    <linearGradient
       inkscape:collect="always"
       xlink:href="#linearGradient3946"
       id="linearGradient3958"
       gradientUnits="userSpaceOnUse"
       x1="-104.472"
       y1="610.37659"
       x2="229.76192"
       y2="610.37659" />
    <linearGradient
       inkscape:collect="always"
       xlink:href="#linearGradient3946"
       id="linearGradient3961"
       gradientUnits="userSpaceOnUse"
       x1="-104.472"
       y1="610.37659"
       x2="229.76192"
       y2="610.37659"
       gradientTransform="translate(3.0304576,13.131983)" />
    <filter
       id="filter3963"
       inkscape:label="Drop Shadow"
       color-interpolation-filters="sRGB">
      <feFlood
         id="feFlood3965"
         flood-opacity="0.997"
         flood-color="rgb(0,0,0)"
         result="flood" />
      <feComposite
         id="feComposite3967"
         in2="SourceGraphic"
         in="flood"
         operator="in"
         result="composite1" />
      <feGaussianBlur
         id="feGaussianBlur3969"
         stdDeviation="3"
         result="blur" />
      <feOffset
         id="feOffset3971"
         dx="0"
         dy="0"
         result="offset" />
      <feComposite
         id="feComposite3973"
         in2="offset"
         in="SourceGraphic"
         operator="over"
         result="composite2" />
    </filter>
    <linearGradient
       inkscape:collect="always"
       xlink:href="#linearGradient3992"
       id="linearGradient3998"
       x1="-92.440033"
       y1="609.53326"
       x2="227.07751"
       y2="609.53326"
       gradientUnits="userSpaceOnUse"
       gradientTransform="translate(-22.223356,-18.182746)" />
    <filter
       id="filter4000"
       inkscape:label="Drop Shadow"
       color-interpolation-filters="sRGB">
      <feFlood
         id="feFlood4002"
         flood-opacity="0.997"
         flood-color="rgb(0,0,0)"
         result="flood" />
      <feComposite
         id="feComposite4004"
         in2="SourceGraphic"
         in="flood"
         operator="in"
         result="composite1" />
      <feGaussianBlur
         id="feGaussianBlur4006"
         stdDeviation="3"
         result="blur" />
      <feOffset
         id="feOffset4008"
         dx="0"
         dy="0"
         result="offset" />
      <feComposite
         id="feComposite4010"
         in2="offset"
         in="SourceGraphic"
         operator="over"
         result="composite2" />
    </filter>
    <linearGradient
       inkscape:collect="always"
       xlink:href="#linearGradient4018"
       id="linearGradient4024"
       x1="-106.62989"
       y1="587.33636"
       x2="218.63177"
       y2="587.33636"
       gradientUnits="userSpaceOnUse"
       gradientTransform="translate(1.2810102,3.0304915)" />
    <filter
       id="filter4026"
       inkscape:label="Drop Shadow"
       color-interpolation-filters="sRGB">
      <feFlood
         id="feFlood4028"
         flood-opacity="0.997"
         flood-color="rgb(0,0,0)"
         result="flood" />
      <feComposite
         id="feComposite4030"
         in2="SourceGraphic"
         in="flood"
         operator="in"
         result="composite1" />
      <feGaussianBlur
         id="feGaussianBlur4032"
         stdDeviation="3"
         result="blur" />
      <feOffset
         id="feOffset4034"
         dx="0"
         dy="0"
         result="offset" />
      <feComposite
         id="feComposite4036"
         in2="offset"
         in="SourceGraphic"
         operator="over"
         result="composite2" />
    </filter>
    <linearGradient
       inkscape:collect="always"
       xlink:href="#linearGradient3946"
       id="linearGradient4043"
       gradientUnits="userSpaceOnUse"
       gradientTransform="translate(3.0304576,13.131983)"
       x1="-104.472"
       y1="610.37659"
       x2="229.76192"
       y2="610.37659" />
    <linearGradient
       inkscape:collect="always"
       xlink:href="#linearGradient3992"
       id="linearGradient4045"
       gradientUnits="userSpaceOnUse"
       gradientTransform="translate(-22.223356,-18.182746)"
       x1="-92.440033"
       y1="609.53326"
       x2="227.07751"
       y2="609.53326" />
    <linearGradient
       inkscape:collect="always"
       xlink:href="#linearGradient4018"
       id="linearGradient4047"
       gradientUnits="userSpaceOnUse"
       gradientTransform="translate(1.2810102,3.0304915)"
       x1="-106.62989"
       y1="587.33636"
       x2="218.63177"
       y2="587.33636" />
    <linearGradient
       inkscape:collect="always"
       xlink:href="#linearGradient3855"
       id="linearGradient4065"
       gradientUnits="userSpaceOnUse"
       gradientTransform="translate(-692.96465,172.73609)"
       x1="523.7793"
       y1="279.59549"
       x2="772.24634"
       y2="476.57523" />
    <linearGradient
       inkscape:collect="always"
       xlink:href="#linearGradient3855"
       id="linearGradient4077"
       gradientUnits="userSpaceOnUse"
       gradientTransform="translate(-692.96465,172.73609)"
       x1="523.7793"
       y1="279.59549"
       x2="772.24634"
       y2="476.57523" />
    <linearGradient
       inkscape:collect="always"
       xlink:href="#linearGradient3946"
       id="linearGradient4079"
       gradientUnits="userSpaceOnUse"
       gradientTransform="translate(3.0304576,13.131983)"
       x1="-104.472"
       y1="610.37659"
       x2="229.76192"
       y2="610.37659" />
    <linearGradient
       inkscape:collect="always"
       xlink:href="#linearGradient3992"
       id="linearGradient4081"
       gradientUnits="userSpaceOnUse"
       gradientTransform="translate(-22.223356,-18.182746)"
       x1="-92.440033"
       y1="609.53326"
       x2="227.07751"
       y2="609.53326" />
    <linearGradient
       inkscape:collect="always"
       xlink:href="#linearGradient4018"
       id="linearGradient4083"
       gradientUnits="userSpaceOnUse"
       gradientTransform="translate(1.2810102,3.0304915)"
       x1="-106.62989"
       y1="587.33636"
       x2="218.63177"
       y2="587.33636" />
  </defs>
  <sodipodi:namedview
     id="base"
     pagecolor="#ffffff"
     bordercolor="#666666"
     borderopacity="1.0"
     inkscape:pageopacity="0.0"
     inkscape:pageshadow="2"
     inkscape:zoom="2.8"
     inkscape:cx="102.97392"
     inkscape:cy="86.597101"
     inkscape:document-units="px"
     inkscape:current-layer="layer1"
     showgrid="false"
     inkscape:window-width="1239"
     inkscape:window-height="1056"
     inkscape:window-x="1920"
     inkscape:window-y="16"
     inkscape:window-maximized="0"
     fit-margin-top="5"
     fit-margin-left="5"
     fit-margin-right="5"
     fit-margin-bottom="5" />
  <metadata
     id="metadata7">
    <rdf:RDF>
      <cc:Work
         rdf:about="">
        <dc:format>image/svg+xml</dc:format>
        <dc:type
           rdf:resource="http://purl.org/dc/dcmitype/StillImage" />
        <dc:title />
      </cc:Work>
    </rdf:RDF>
  </metadata>
  <g
     inkscape:label="Layer 1"
     inkscape:groupmode="layer"
     id="layer1"
     transform="translate(180.5512,-688.37662)">
    <g
       id="g4067"
       transform="matrix(0.213764,0,0,0.213764,-137.426,618.16362)">
      <g
         id="g4061">
        <rect
           style="color:#000000;fill:#f3f7ff;fill-opacity:1;fill-rule:nonzero;stroke:none;stroke-width:15;marker:none;visibility:visible;display:inline;overflow:visible;enable-background:accumulate"
           id="rect4049"
           width="420.22345"
           height="310.11682"
           x="-155.56349"
           y="454.35187"
           ry="1.0370679" />
        <path
           style="color:#000000;fill:url(#linearGradient4077);fill-opacity:1;stroke:#484848;stroke-width:9.35611248;stroke-linecap:round;stroke-linejoin:round;stroke-miterlimit:4;stroke-opacity:1;stroke-dasharray:none;stroke-dashoffset:0;marker:none;visibility:visible;display:inline;overflow:visible;enable-background:accumulate"
           d="m -150.40215,443.23608 c -12.93433,0 -23.34375,10.40942 -23.34375,23.34375 l 0,292.71875 c 0,12.93433 10.40942,23.34375 23.34375,23.34375 l 116.062503,0 0,31.3125 c 0,0.57454 0.45671,1.03125 1.03125,1.03125 l 177.718747,0 c 0.57454,0 1.03125,-0.45671 1.03125,-1.03125 l 0,-31.3125 116.0625,0 c 12.93433,0 23.34375,-10.40942 23.34375,-23.34375 l 0,-292.71875 c 0,-12.93433 -10.40942,-23.34375 -23.34375,-23.34375 l -411.90625,0 z m 14.8125,22.21875 382.3125,0 c 4.52505,0 8.15625,3.66245 8.15625,8.1875 l 0,278.625 c 0,4.52505 -3.6312,8.15625 -8.15625,8.15625 l -382.3125,0 c -4.52505,0 -8.1875,-3.6312 -8.1875,-8.15625 l 0,-278.625 c 0,-4.52505 3.66245,-8.1875 8.1875,-8.1875 z"
           id="rect3069"
           inkscape:connector-curvature="0" />
      </g>
      <g
         transform="translate(-11.111678,15.152288)"
         id="g4038">
        <path
           style="font-size:medium;font-style:normal;font-variant:normal;font-weight:normal;font-stretch:normal;text-indent:0;text-align:start;text-decoration:none;line-height:normal;letter-spacing:normal;word-spacing:normal;text-transform:none;direction:ltr;block-progression:tb;writing-mode:lr-tb;text-anchor:start;baseline-shift:baseline;color:#000000;fill:url(#linearGradient4079);fill-opacity:1;stroke:none;stroke-width:0;marker:none;visibility:visible;display:inline;overflow:visible;filter:url(#filter3963);enable-background:accumulate;font-family:Sans;-inkscape-font-specification:Sans"
           d="m 225.31171,527.56948 c -12.50528,13.13377 -27.15477,23.0661 -44.96718,27.41176 -20.95863,6.86837 -41.74083,17.61105 -53.59108,37.01639 -16.70122,21.31969 -28.30281,47.72846 -50.048394,64.41543 -18.676547,5.81086 -37.639623,-4.45148 -55.515487,-9.04591 -20.74351686,-4.12498 -40.957464,-28.77645 -61.932601,-12.89151 -25.20932,20.48175 -43.762173,48.06863 -60.469758,75.63023 9.386541,23.56619 24.699561,-12.9427 32.64131,-22.60585 11.228537,-16.07565 23.809345,-31.73562 40.230423,-42.78779 18.9034196,1.28701 33.37957,16.61684 52.256913,19.3772 22.187412,6.66012 52.177833,17.92607 70.772063,-2.0512 23.022591,-25.08423 36.323741,-58.14631 62.509051,-80.40022 23.88026,-14.28133 55.5266,-16.53151 73.71934,-39.42074 3.05467,-5.21573 2.29612,-14.84027 -5.6046,-14.64779 z"
           id="path3940"
           inkscape:connector-curvature="0"
           transform="matrix(-1,0,0,1,119.34381,-4.1601031e-6)" />
        <path
           style="font-size:medium;font-style:normal;font-variant:normal;font-weight:normal;font-stretch:normal;text-indent:0;text-align:start;text-decoration:none;line-height:normal;letter-spacing:normal;word-spacing:normal;text-transform:none;direction:ltr;block-progression:tb;writing-mode:lr-tb;text-anchor:start;baseline-shift:baseline;color:#000000;fill:url(#linearGradient4081);fill-opacity:1;stroke:none;stroke-width:15;marker:none;visibility:visible;display:inline;overflow:visible;filter:url(#filter4000);enable-background:accumulate;font-family:Sans;-inkscape-font-specification:Sans"
           d="m -107.06711,488.19225 a 7.50075,7.50075 0 0 0 -5.875,12.28125 c 16.100047,20.0781 40.514934,29.04587 60.656254,39.78125 20.14132,10.73538 35.551353,21.77579 39.5,45.46875 l 0.15625,0.75 0.28125,0.71875 c 6.946282,17.84034 12.063588,44.19474 22.59375,66.5625 5.265081,11.18388 11.997102,21.53878 21.5625,29.125 9.565398,7.58622 22.005247,12.08038 36.9375,11.59375 l 0.25,-0.0312 0.21875,0 c 44.357616,-4.27103 87.741986,-15.49699 129.874996,-27.84375 a 7.50075,7.50075 0 1 0 -4.21875,-14.375 c -41.71011,12.22283 -84.09569,23.10692 -126.781246,27.25 -11.738495,0.3501 -20.000255,-2.8171 -26.96875,-8.34375 -7.001704,-5.55298 -12.640213,-13.82531 -17.3125,-23.75 C 14.522363,627.65579 9.450387,602.10915 1.745394,582.161 -3.518367,553.43267 -24.205349,538.23866 -45.223356,527.036 -66.52109,515.68424 -88.535391,506.89021 -101.22336,491.06725 a 7.50075,7.50075 0 0 0 -5.84375,-2.875 z"
           id="path3981"
           inkscape:connector-curvature="0"
           transform="matrix(1,0,0,-1,29.153041,1182.701)" />
        <path
           style="font-size:medium;font-style:normal;font-variant:normal;font-weight:normal;font-stretch:normal;text-indent:0;text-align:start;text-decoration:none;line-height:normal;letter-spacing:normal;word-spacing:normal;text-transform:none;direction:ltr;block-progression:tb;writing-mode:lr-tb;text-anchor:start;baseline-shift:baseline;color:#000000;fill:url(#linearGradient4083);fill-opacity:1;stroke:none;stroke-width:15;marker:none;visibility:visible;display:inline;overflow:visible;filter:url(#filter4026);enable-background:accumulate;font-family:Sans;-inkscape-font-specification:Sans"
           d="m 19.093511,550.09299 c -8.958485,-0.22271 -18.57744758,3.06225 -28.8125008,7.4375 -13.6467372,5.83366 -28.3526552,14.37017 -42.0312492,23.1875 -27.357187,17.63466 -50.687501,36.5 -50.687501,36.5 a 7.50075,7.50075 0 1 0 9.437501,11.65625 c 0,0 22.846638,-18.43086 49.375,-35.53125 13.264181,-8.5502 27.447455,-16.72759 39.7812493,-22 12.3337957,-5.27241 22.8922207,-6.87623 26.9375007,-5.53125 31.299057,10.40638 73.514154,21.01649 108.593749,17.90625 16.96292,-1.50396 27.99355,-3.89368 38.21875,-3.09375 10.2252,0.79993 20.70823,4.41938 38.25,16.4375 a 7.5065076,7.5065076 0 1 0 8.5,-12.375 c -18.74851,-12.84487 -32.45022,-18.00302 -45.59375,-19.03125 -13.14353,-1.02823 -24.65926,1.70391 -40.6875,3.125 -30.902725,2.7399 -72.278072,-7.11846 -102.562499,-17.1875 -2.837648,-0.94347 -5.732588,-1.42576 -8.71875,-1.5 z"
           id="path4012"
           inkscape:connector-curvature="0" />
      </g>
      <path
         sodipodi:nodetypes="ccccc"
         inkscape:connector-curvature="0"
         id="path4059"
         d="m 246.47722,473.54477 -208.091423,0 119.448243,276.7818 88.64318,0 z"
         style="opacity:0.35627531;fill:#ffffff;fill-opacity:1;stroke:none" />
    </g>
  </g>
</svg>
