<?xml version="1.0"?>
<svg width="292" height="370" xmlns="http://www.w3.org/2000/svg" xmlns:svg="http://www.w3.org/2000/svg">
 <style type="text/css">.st1{fill:#EC008C;}</style>
 <g>
  <g stroke="null" id="svg_2">
   <g stroke="null" id="svg_1">
    <path stroke="null" id="svg_18" d="m269.446777,233.555115c-10.676697,12.010712 -21.353439,24.02243 -32.030182,33.364166c-1.334961,1.334961 -2.669937,1.334961 -1.334961,0c41.372955,-45.37587 85.414825,-144.136368 28.026276,-241.561918c0,0 -22.687408,16.015295 -41.371933,48.045492c-18.684525,-28.026497 -45.376862,-52.049192 -78.742035,-73.402855c0,0 -84.079277,94.756615 -46.710411,230.885193c-106.7679,14.680634 -68.064695,98.760498 -50.714828,110.772217c1.334667,0 1.334667,0 0,-1.334961c-6.672935,-9.341766 -22.688032,-41.372986 12.011395,-73.403168c18.684429,-17.349564 57.387554,-21.353455 57.387554,-21.353455c-9.341759,-65.395355 -8.007797,-125.451843 36.034103,-190.847202c5.338852,4.003696 70.734222,32.030293 73.403137,129.455738c5.337875,61.391464 -25.357346,109.437271 -56.053574,128.12178c-53.383667,29.361267 -114.775017,44.041901 -166.82443,56.052582c-4.003749,1.334961 -2.66917,1.334961 0,1.334961c125.452474,-5.338867 236.223676,-61.391449 278.9306,-116.110062c8.007813,-10.676727 12.011688,-21.35347 6.673828,-28.026306c-5.338867,-4.003906 -16.015594,5.337875 -18.68454,8.007797zm-20.01947,-78.74202c-1.333969,-20.018494 -6.672836,-37.36805 -13.345673,-54.718208c12.011703,-25.357269 24.022369,-34.699532 24.022369,-34.699532s25.357391,65.395355 2.669983,133.459656c-13.34668,41.372955 -30.696259,66.730316 -38.704056,77.407043c-1.333954,2.668915 -4.003891,2.668915 -2.66893,1.333954c21.35347,-28.026291 33.365173,-73.40213 28.026306,-122.782913z" class="st1"/>
   </g>
  </g>
 </g>
</svg>