<?xml version="1.0" encoding="UTF-8" standalone="no"?>
<!-- Generator: Adobe Illustrator 16.0.0, SVG Export Plug-In . SVG Version: 6.00 Build 0)  -->

<svg
   xmlns:dc="http://purl.org/dc/elements/1.1/"
   xmlns:cc="http://creativecommons.org/ns#"
   xmlns:rdf="http://www.w3.org/1999/02/22-rdf-syntax-ns#"
   xmlns:svg="http://www.w3.org/2000/svg"
   xmlns="http://www.w3.org/2000/svg"
   xmlns:sodipodi="http://sodipodi.sourceforge.net/DTD/sodipodi-0.dtd"
   xmlns:inkscape="http://www.inkscape.org/namespaces/inkscape"
   version="1.1"
   id="svg3027"
   sodipodi:docname="stamp-exoscale.svg"
   inkscape:version="0.48.5 r10040"
   x="0px"
   y="0px"
   width="286.849px"
   height="80px"
   viewBox="0 0 286.849 80"
   enable-background="new 0 0 286.849 80"
   xml:space="preserve"><metadata
     id="metadata3136"><rdf:RDF><cc:Work
         rdf:about=""><dc:format>image/svg+xml</dc:format><dc:type
           rdf:resource="http://purl.org/dc/dcmitype/StillImage" /></cc:Work></rdf:RDF></metadata><defs
     id="defs3134" /><sodipodi:namedview
     showguides="true"
     fit-margin-left="0"
     fit-margin-top="0"
     showgrid="false"
     inkscape:cy="-2.8945189"
     inkscape:cx="164.37594"
     inkscape:zoom="3.6203867"
     borderopacity="1.0"
     bordercolor="#666666"
     pagecolor="#ffffff"
     id="base"
     inkscape:window-height="1056"
     inkscape:window-width="1912"
     fit-margin-bottom="0"
     inkscape:current-layer="svg3027"
     inkscape:pageshadow="2"
     inkscape:document-units="px"
     inkscape:pageopacity="0.0"
     fit-margin-right="0"
     inkscape:guide-bbox="true"
     inkscape:window-maximized="0"
     inkscape:window-y="16"
     inkscape:window-x="0"><sodipodi:guide
       position="-152.83431,148.53378"
       orientation="-0.70710678,0.70710678"
       id="guide3134" /></sodipodi:namedview><g
     id="g19"
     transform="matrix(0.42836016,0,0,0.42836016,343.54716,500.67717)"><path
       id="path21"
       inkscape:connector-curvature="0"
       fill="#FFFFFF"
       d="M-726.689-1128.193l50.83,50.826h28.808   c5.279,0,6.544-3.052,2.814-6.785l-44.041-44.042c-3.735-3.732-11.112-6.789-16.394-6.789h-19.205   c-5.276,0-6.545,3.052-2.822,6.781C-726.692-1128.199-726.691-1128.193-726.689-1128.193z" /><path
       id="path23"
       inkscape:connector-curvature="0"
       fill="#FFFFFF"
       d="M-647.052-1073.524h-28.807l-50.829,50.825   c-0.002,0.009-0.005,0.009-0.01,0.011c-3.723,3.732-2.455,6.782,2.822,6.782h19.205c5.282,0,12.66-3.057,16.395-6.789   l44.041-44.043C-640.507-1070.469-641.772-1073.524-647.052-1073.524L-647.052-1073.524z" /><path
       id="path25"
       inkscape:connector-curvature="0"
       fill="#FFFFFF"
       d="M-718.756-1039.633c0-0.005-0.002-0.005-0.006-0.005   l-33.885-33.887h-19.208c-3.517,0-4.361,2.034-1.875,4.528l29.361,29.359c2.491,2.485,7.41,4.525,10.929,4.525h12.802   C-717.117-1035.113-716.273-1037.144-718.756-1039.633z" /><path
       id="path27"
       inkscape:connector-curvature="0"
       fill="#FFFFFF"
       d="M-771.856-1077.367h19.208l33.885-33.884   c0.003,0,0.006-0.002,0.006-0.002c2.484-2.49,1.639-4.52-1.882-4.52h-12.802c-3.519,0-8.437,2.034-10.929,4.522l-29.361,29.361   C-776.217-1079.402-775.372-1077.367-771.856-1077.367z" /></g><g
     id="g3080"
     transform="matrix(0.44226044,0,0,0.44226044,342.17266,499.54862)"><path
       id="path2986"
       inkscape:connector-curvature="0"
       fill="#FFFFFF"
       d="M-571.971-1035.951   c0.114,10.268,5.473,22.664,18.984,22.664c10.272,0,15.855-6.028,18.09-14.737h7.031c-3.011,13.063-10.608,20.657-25.122,20.657   c-18.313,0-26.016-14.072-26.016-30.479c0-15.19,7.703-30.488,26.016-30.488c18.534,0,25.906,16.191,25.351,32.382H-571.971z    M-534.674-1041.874c-0.335-10.606-6.924-20.542-18.312-20.542c-11.504,0-17.864,10.047-18.984,20.542H-534.674z" /><path
       id="path2988"
       inkscape:connector-curvature="0"
       fill="#FFFFFF"
       d="M-500.175-1038.969l-20.656-27.692h8.82l16.41,21.888   l16.082-21.888h8.825l-20.771,27.582l22.443,30.036h-8.933l-18.089-24.232l-17.755,24.232h-8.71L-500.175-1038.969   L-500.175-1038.969z" /><path
       id="path2990"
       inkscape:connector-curvature="0"
       fill="#FFFFFF"
       d="M-408.397-1037.848c0,16.523-9.603,30.479-27.248,30.479   c-17.643,0-27.243-13.955-27.243-30.479c0-16.531,9.6-30.486,27.243-30.486C-418-1068.335-408.397-1054.378-408.397-1037.848z    M-455.854-1037.848c0,12.279,6.699,24.561,20.209,24.561c13.511,0,20.213-12.282,20.213-24.561   c0-12.288-6.702-24.568-20.213-24.568S-455.854-1050.135-455.854-1037.848z" /><path
       id="path2992"
       inkscape:connector-curvature="0"
       fill="#FFFFFF"
       d="M-386.068-1027.578   c0.671,7.366,6.249,10.042,13.068,10.042c4.8,0,13.174-0.998,12.838-7.587c-0.34-6.695-9.605-7.481-18.866-9.601   c-9.384-2.009-18.542-5.358-18.542-17.085c0-12.619,13.626-16.524,24.119-16.524c11.836,0,22.556,4.913,24.119,17.753h-13.286   c-1.117-6.028-6.139-7.702-11.723-7.702c-3.685,0-10.502,0.891-10.502,5.913c0,6.255,9.382,7.144,18.762,9.269   c9.265,2.12,18.645,5.471,18.645,16.86c0,13.732-13.845,18.76-25.791,18.76c-14.514,0-25.349-6.472-25.57-20.098H-386.068z" /><path
       id="path2994"
       inkscape:connector-curvature="0"
       fill="#FFFFFF"
       d="M-296.516-1047.455   c-1.007-7.033-6.143-10.828-13.178-10.828c-6.589,0-15.857,3.459-15.857,20.993c0,9.599,4.242,19.754,15.296,19.754   c7.375,0,12.511-4.906,13.739-13.167h12.728c-2.345,14.96-11.615,23.223-26.467,23.223c-18.089,0-28.025-12.845-28.025-29.81   c0-17.42,9.488-31.045,28.476-31.045c13.401,0,24.788,6.701,26.016,20.879h-12.728V-1047.455z" /><path
       id="path2996"
       inkscape:connector-curvature="0"
       fill="#FFFFFF"
       d="M-222.826-1021.881c0,3.127,0.673,4.348,3.016,4.348   c0.779,0,1.786,0,3.127-0.219v8.819c-1.897,0.671-5.918,1.453-8.04,1.453c-5.138,0-8.821-1.786-9.826-7.031   c-5.023,4.906-13.176,7.031-19.99,7.031c-10.387,0-19.76-5.582-19.76-16.863c0-14.4,11.5-16.746,22.218-17.975   c9.157-1.673,17.305-0.669,17.305-8.15c0-6.588-6.81-7.812-11.942-7.812c-7.15,0-12.173,2.9-12.728,9.151h-12.734   c0.894-14.85,13.511-19.204,26.241-19.204c11.281,0,23.117,4.574,23.117,16.747v29.705H-222.826z M-235.554-1037.962   c-3.904,2.567-10.051,2.461-15.638,3.463c-5.467,0.89-10.378,2.901-10.378,9.601c0,5.695,7.256,7.364,11.721,7.364   c5.582,0,14.295-2.897,14.295-10.939V-1037.962z" /><path
       id="path2998"
       inkscape:connector-curvature="0"
       fill="#FFFFFF"
       d="M-206.53-1088.767h12.732v79.724h-12.732V-1088.767z" /><path
       id="path3000"
       inkscape:connector-curvature="0"
       fill="#FFFFFF"
       d="M-167.782-1034.613c0,9.044,4.911,17.08,15.525,17.08   c7.364,0,11.833-3.235,14.066-9.599h12.054c-2.789,12.622-13.507,19.652-26.12,19.652c-18.091,0-28.257-12.617-28.257-30.366   c0-16.421,10.727-30.488,27.919-30.488c18.199,0,29.368,16.414,27.244,33.72H-167.782L-167.782-1034.613z M-138.079-1042.988   c-0.446-8.04-5.922-15.293-14.516-15.293c-8.819,0-14.852,6.695-15.19,15.293H-138.079z" /></g></svg>