<?xml version="1.0"?>
<svg width="225" height="42" xmlns="http://www.w3.org/2000/svg" xmlns:svg="http://www.w3.org/2000/svg">
 <style type="text/css">
    .st0{fill:#FFFFFF;}
	.st1{fill:#EC008C;}
</style>
 <g>
  <g stroke="null" id="svg_1">
   <g stroke="null" id="svg_2">
    <g stroke="null" id="svg_3">
     <g stroke="null" id="svg_4">
      <rect stroke="null" x="87.251678" y="27.986392" class="st0" width="7.183672" height="2.843537" id="svg_5"/>
      <path stroke="null" class="st0" d="m59.115631,30.829939l0,-5.53743l5.986389,0l0,-2.843534l-5.986389,0l0,-5.687075l-3.292519,0l0,14.517002c0,4.190477 1.945576,5.986395 6.435371,5.986395l4.789116,0l0,-2.843536l-3.891151,0c-2.394562,0 -4.040817,-0.149662 -4.040817,-3.591822" id="svg_6"/>
      <path stroke="null" class="st0" d="m44.598625,22.598648c-3.292515,0 -8.231289,0 -8.231289,6.884338l0,7.78231l3.142857,0l0,-7.333332c0,-3.591822 1.047619,-4.489796 5.088432,-4.489796c4.040817,0 5.088436,1.047621 5.088436,4.489796l0,7.333332l3.292519,0l0,-7.78231c-0.149662,-6.884338 -5.238098,-6.884338 -8.380955,-6.884338" id="svg_7"/>
      <polygon stroke="null" class="st0" points="14.217681888009793,22.598642614582786 8.829929067002013,33.37414540206373 3.5918352140051866,22.598642614582786 3.5918352140051866,22.598642614582786 0,22.598642614582786 7.333330823288634,37.11564101134718 7.4829912185668945,37.265298552090826 10.326528737982699,37.265298552090826 17.809519956549593,22.598642614582786 " id="svg_8"/>
      <path stroke="null" class="st0" d="m189.169998,29.931965c0,-7.333317 -5.387726,-7.333317 -8.081604,-7.333317c-2.394577,0 -7.931976,0 -7.931976,7.333317c0,7.333332 5.537399,7.333332 7.931976,7.333332l7.333298,0l0,-2.843536l-7.333298,0c-3.741501,0 -4.489807,-0.897961 -4.639481,-3.591822l12.721085,0l0,-0.897974zm-12.421753,-1.945576c0.299332,-1.795919 1.047638,-2.69388 4.489792,-2.69388c3.591843,0 4.489792,0.897961 4.639465,2.69388l-9.129257,0z" id="svg_9"/>
      <polygon stroke="null" class="st0" points="145.6190022624287,33.37414540206373 140.38090840943187,22.598642614582786 140.23125086868822,22.598642614582786 136.63941280014842,22.598642614582786 144.12240401871532,37.11564101134718 144.12240401871532,37.265298552090826 147.11560050614207,37.265298552090826 154.59859172470897,22.598642614582786 151.00675365616917,22.598642614582786 " id="svg_10"/>
      <path stroke="null" class="st0" d="m105.360497,22.598648c-4.340118,0 -8.380928,0.598625 -8.380928,7.333317l0,11.823124l3.292511,0l0,-5.387753c1.496597,0.748299 3.442184,0.748299 5.088417,0.748299c4.340157,0 8.380974,-0.598637 8.380974,-7.33333c0,-6.734692 -3.891182,-7.183657 -8.380974,-7.183657m0,11.823112c-4.938759,0 -5.088417,-0.897961 -5.088417,-4.489796c0,-3.591822 0.149658,-4.489796 5.088417,-4.489796c4.938789,0 5.088455,1.047636 5.088455,4.489796c0,3.442173 -0.149666,4.489796 -5.088455,4.489796" id="svg_11"/>
      <path stroke="null" class="st0" d="m116.584984,29.482986l0,7.78231l3.142876,0l0,-7.333332c0,-3.442175 0.299316,-4.489796 5.088417,-4.489796l3.442192,0l0,-2.843521l-2.993202,0c-4.489792,0 -8.680283,0 -8.680283,6.884338" id="svg_12"/>
      <path stroke="null" class="st0" d="m162.979523,22.598648c-2.394531,0 -7.931946,0 -7.931946,7.333317c0,7.333332 5.537415,7.333332 7.931946,7.333332l7.333359,0l0,-2.843536l-7.333359,0c-3.741486,0 -4.489792,-0.897961 -4.63942,-3.591822l12.721085,0l0,-0.897974c0,-7.333317 -5.53743,-7.333317 -8.081665,-7.333317m-4.489792,5.387741c0.299347,-1.795919 1.047638,-2.69388 4.489792,-2.69388c3.591873,0 4.489807,0.897961 4.639481,2.69388l-9.129272,0z" id="svg_13"/>
      <path stroke="null" class="st0" d="m76.476166,22.598648c-2.394554,0 -7.931969,0 -7.931969,7.333317c0,7.333332 5.537415,7.333332 7.931969,7.333332l7.333336,0l0,-2.843536l-7.333336,0c-3.741493,0 -4.489792,-0.897961 -4.63945,-3.591822l12.721085,0l0,-0.897974c0,-7.333317 -5.537415,-7.333317 -8.081635,-7.333317m-4.489792,5.387741c0.299316,-1.795919 1.047623,-2.69388 4.489792,-2.69388c3.591843,0 4.489799,0.897961 4.639458,2.69388l-9.12925,0z" id="svg_14"/>
      <path stroke="null" class="st0" d="m25.741491,22.598648c-2.394558,0 -7.931973,0 -7.931973,7.333317c0,7.333332 5.537415,7.333332 7.931973,7.333332l7.33333,0l0,-2.843536l-7.33333,0c-3.741497,0 -4.489796,-0.897961 -4.639456,-3.591822l12.721085,0l0,-0.897974c-0.149658,-7.333317 -5.537415,-7.333317 -8.081629,-7.333317m-4.489796,5.387741c0.299318,-1.795919 1.047617,-2.69388 4.489796,-2.69388c3.591835,0 4.489794,0.897961 4.639452,2.69388l-9.129248,0z" id="svg_15"/>
      <path stroke="null" class="st0" d="m132.74826,16.7619c-0.897964,0 -1.646255,0.748299 -1.646255,1.646259c0,0.897957 0.748291,1.646257 1.646255,1.646257c0.897949,0 1.64624,-0.748301 1.64624,-1.646257c0,-0.897961 -0.748291,-1.646259 -1.64624,-1.646259" id="svg_16"/>
      <rect stroke="null" x="131.102006" y="22.598638" class="st0" width="3.292516" height="14.666663" id="svg_17"/>
     </g>
    </g>
   </g>
   <path stroke="null" class="st1" d="m222.843475,26.19047c-1.197296,1.346937 -2.394547,2.693874 -3.591827,3.741495c-0.149673,0.149675 -0.299316,0.149675 -0.149673,0c4.639465,-5.088419 9.578247,-16.163261 3.142868,-27.088428c0,0 -2.54422,1.795933 -4.639465,5.387754c-2.09523,-3.142857 -5.088425,-5.836719 -8.829926,-8.231291c0,0 -9.428574,10.625862 -5.238083,25.891148c-11.972794,1.646259 -7.632675,11.074829 -5.687088,12.421783c0.149673,0 0.149673,0 0,-0.149677c-0.748291,-1.047619 -2.544205,-4.639454 1.346939,-8.231289c2.095245,-1.945576 6.435364,-2.394558 6.435364,-2.394558c-1.047607,-7.33333 -0.897934,-14.068023 4.040817,-21.401339c0.598648,0.448965 7.931976,3.59182 8.231293,14.516989c0.598648,6.88435 -2.843536,12.272106 -6.285706,14.36734c-5.986404,3.292534 -12.870743,4.938778 -18.707489,6.285728c-0.448975,0.149647 -0.299316,0.149647 0,0.149647c14.068039,-0.59864 26.489792,-6.884338 31.278915,-13.020407c0.897949,-1.197262 1.346939,-2.394556 0.748306,-3.142857c-0.598648,-0.448963 -1.795929,0.598639 -2.095245,0.897961zm-2.244904,-8.829916c-0.149643,-2.244897 -0.748306,-4.190489 -1.496597,-6.136066c1.346954,-2.843522 2.693878,-3.891156 2.693878,-3.891156s2.843536,7.333332 0.299316,14.965981c-1.496597,4.639456 -3.442184,7.482992 -4.340118,8.680286c-0.149673,0.299303 -0.44899,0.299303 -0.299316,0.149643c2.394531,-3.142839 3.741486,-8.231289 3.142838,-13.768688z" id="svg_18"/>
  </g>
 </g>
</svg>