<?xml version="1.0" encoding="UTF-8" standalone="no"?>
<!-- Generator: Adobe Illustrator 16.0.0, SVG Export Plug-In . SVG Version: 6.00 Build 0)  -->

<svg
   xmlns:dc="http://purl.org/dc/elements/1.1/"
   xmlns:cc="http://creativecommons.org/ns#"
   xmlns:rdf="http://www.w3.org/1999/02/22-rdf-syntax-ns#"
   xmlns:svg="http://www.w3.org/2000/svg"
   xmlns="http://www.w3.org/2000/svg"
   xmlns:sodipodi="http://sodipodi.sourceforge.net/DTD/sodipodi-0.dtd"
   xmlns:inkscape="http://www.inkscape.org/namespaces/inkscape"
   version="1.1"
   id="svg3027"
   sodipodi:docname="stamp-exoscale.svg"
   inkscape:version="0.48.5 r10040"
   x="0px"
   y="0px"
   width="286.849px"
   height="80px"
   viewBox="0 0 286.849 80"
   enable-background="new 0 0 286.849 80"
   xml:space="preserve"><metadata
     id="metadata3136"><rdf:RDF><cc:Work
         rdf:about=""><dc:format>image/svg+xml</dc:format><dc:type
           rdf:resource="http://purl.org/dc/dcmitype/StillImage" /></cc:Work></rdf:RDF></metadata><defs
     id="defs3134" /><sodipodi:namedview
     showguides="true"
     fit-margin-left="0"
     fit-margin-top="0"
     showgrid="false"
     inkscape:cy="-2.8945189"
     inkscape:cx="164.92837"
     inkscape:zoom="3.6203867"
     borderopacity="1.0"
     bordercolor="#666666"
     pagecolor="#ffffff"
     id="base"
     inkscape:window-height="1056"
     inkscape:window-width="1912"
     fit-margin-bottom="0"
     inkscape:current-layer="svg3027"
     inkscape:pageshadow="2"
     inkscape:document-units="px"
     inkscape:pageopacity="0.0"
     fit-margin-right="0"
     inkscape:guide-bbox="true"
     inkscape:window-maximized="0"
     inkscape:window-y="16"
     inkscape:window-x="0"><sodipodi:guide
       position="-152.83431,148.53378"
       orientation="-0.70710678,0.70710678"
       id="guide3134" /></sodipodi:namedview><g
     id="g19"
     transform="matrix(0.42836016,0,0,0.42836016,343.54716,500.67717)"><path
       id="path21"
       inkscape:connector-curvature="0"
       fill="#FFFFFF"
       d="M-726.689-1128.193l50.83,50.826h28.808   c5.279,0,6.544-3.052,2.814-6.785l-44.041-44.042c-3.735-3.732-11.112-6.789-16.394-6.789h-19.205   c-5.276,0-6.545,3.052-2.822,6.781C-726.692-1128.199-726.691-1128.193-726.689-1128.193z" /><path
       id="path23"
       inkscape:connector-curvature="0"
       fill="#FFFFFF"
       d="M-647.052-1073.524h-28.807l-50.829,50.825   c-0.002,0.009-0.005,0.009-0.01,0.011c-3.723,3.732-2.455,6.782,2.822,6.782h19.205c5.282,0,12.66-3.057,16.395-6.789   l44.041-44.043C-640.507-1070.469-641.772-1073.524-647.052-1073.524L-647.052-1073.524z" /><path
       id="path25"
       inkscape:connector-curvature="0"
       fill="#FFFFFF"
       d="M-718.756-1039.633c0-0.005-0.002-0.005-0.006-0.005   l-33.885-33.887h-19.208c-3.517,0-4.361,2.034-1.875,4.528l29.361,29.359c2.491,2.485,7.41,4.525,10.929,4.525h12.802   C-717.117-1035.113-716.273-1037.144-718.756-1039.633z" /><path
       id="path27"
       inkscape:connector-curvature="0"
       fill="#FFFFFF"
       d="M-771.856-1077.367h19.208l33.885-33.884   c0.003,0,0.006-0.002,0.006-0.002c2.484-2.49,1.639-4.52-1.882-4.52h-12.802c-3.519,0-8.437,2.034-10.929,4.522l-29.361,29.361   C-776.217-1079.402-775.372-1077.367-771.856-1077.367z" /></g><path
     style="fill:#ffffff"
     d="m 89.212514,41.388475 c 0.05042,4.54113 2.420491,10.023391 8.395872,10.023391 4.542904,0 7.012044,-2.665946 8.000494,-6.517593 h 3.10953 c -1.33165,5.777249 -4.6915,9.135774 -11.110466,9.135774 -8.099116,0 -11.505848,-6.223489 -11.505848,-13.479656 0,-6.717936 3.406732,-13.483636 11.505848,-13.483636 8.196856,0 11.457196,7.160639 11.211746,14.321278 H 89.212514 z M 105.7075,38.768966 c -0.14816,-4.690614 -3.06221,-9.084914 -8.098672,-9.084914 -5.087764,0 -7.90054,4.443391 -8.395872,9.084914 H 105.7075 z"
     inkscape:connector-curvature="0"
     id="path2986" /><path
     style="fill:#ffffff"
     d="m 120.96504,40.053733 -9.13533,-12.247076 h 3.90074 l 7.25749,9.680196 7.11244,-9.680196 h 3.90294 l -9.18619,12.198427 9.92565,13.283735 h -3.95071 l -8.00005,-10.716855 -7.85233,10.716855 h -3.85209 l 9.87744,-13.235086 0,0 z"
     inkscape:connector-curvature="0"
     id="path2988" /><path
     style="fill:#ffffff"
     d="m 161.55482,40.549507 c 0,7.307469 -4.24702,13.479656 -12.05071,13.479656 -7.8028,0 -12.0485,-6.171745 -12.0485,-13.479656 0,-7.311007 4.2457,-13.482752 12.0485,-13.482752 7.80369,-4.42e-4 12.05071,6.172187 12.05071,13.482752 z m -20.98835,0 c 0,5.430516 2.9627,10.862359 8.93764,10.862359 5.97538,0 8.93941,-5.431843 8.93941,-10.862359 0,-5.434496 -2.96403,-10.865455 -8.93941,-10.865455 -5.97538,0 -8.93764,5.431401 -8.93764,10.865455 z"
     inkscape:connector-curvature="0"
     id="path2990" /><path
     style="fill:#ffffff"
     d="m 171.43006,45.091522 c 0.29675,3.25769 2.76368,4.441179 5.77946,4.441179 2.12285,0 5.82633,-0.441376 5.67774,-3.35543 -0.15037,-2.960934 -4.24792,-3.30855 -8.34369,-4.246143 -4.15017,-0.888501 -8.20039,-2.369631 -8.20039,-7.556019 0,-5.580885 6.02624,-7.307912 10.66688,-7.307912 5.23459,0 9.97562,2.172826 10.66688,7.85145 h -5.87588 c -0.494,-2.665946 -2.71503,-3.40629 -5.18462,-3.40629 -1.62973,0 -4.64461,0.394054 -4.64461,2.615086 0,2.766339 4.14928,3.159509 8.29769,4.099312 4.09754,0.937592 8.24594,2.419607 8.24594,7.456511 0,6.07312 -6.12309,8.296806 -11.40634,8.296806 -6.41897,0 -11.21086,-2.86231 -11.3086,-8.88855 h 5.62954 z"
     inkscape:connector-curvature="0"
     id="path2992" /><path
     style="fill:#ffffff"
     d="m 211.03536,36.300711 c -0.44535,-3.110418 -2.7168,-4.788796 -5.8281,-4.788796 -2.91406,0 -7.01293,1.529779 -7.01293,9.284373 0,4.245258 1.87607,8.736413 6.76482,8.736413 3.26167,0 5.53312,-2.16973 6.07621,-5.823243 h 5.62909 c -1.0371,6.616216 -5.13685,10.270614 -11.7053,10.270614 -8.00005,0 -12.39435,-5.680835 -12.39435,-13.183784 0,-7.704177 4.19617,-13.729975 12.59381,-13.729975 5.92673,0 10.96275,2.963587 11.50584,9.233956 h -5.62909 v 4.42e-4 z"
     inkscape:connector-curvature="0"
     id="path2994" /><path
     style="fill:#ffffff"
     d="m 243.62554,47.611079 c 0,1.382949 0.29764,1.922949 1.33385,1.922949 0.34452,0 0.78988,0 1.38295,-0.09685 v 3.900294 c -0.83897,0.296757 -2.6173,0.642605 -3.55577,0.642605 -2.27234,0 -3.90118,-0.789877 -4.34565,-3.109533 -2.22148,2.169729 -5.82723,3.109533 -8.84079,3.109533 -4.59376,0 -8.73907,-2.468698 -8.73907,-7.457838 0,-6.36855 5.086,-7.406093 9.82615,-7.949631 4.04977,-0.739902 7.65331,-0.295873 7.65331,-3.604423 0,-2.913612 -3.01179,-3.454938 -5.28147,-3.454938 -3.16216,0 -5.38364,1.282555 -5.62909,4.047125 h -5.63175 c 0.39538,-6.567568 5.97538,-8.49317 11.60536,-8.49317 4.98914,0 10.22373,2.0229 10.22373,7.406536 v 13.137346 h -0.002 z m -5.6291,-7.11199 c -1.72658,1.135283 -4.44516,1.088403 -6.91606,1.531548 -2.41784,0.393612 -4.58978,1.282998 -4.58978,4.246143 0,2.518673 3.20904,3.256805 5.18373,3.256805 2.4687,0 6.32211,-1.281228 6.32211,-4.837887 v -4.196609 z"
     inkscape:connector-curvature="0"
     id="path2996" /><path
     style="fill:#ffffff"
     d="m 250.83261,18.030048 h 5.63086 v 35.258771 h -5.63086 V 18.030048 z"
     inkscape:connector-curvature="0"
     id="path2998" /><path
     style="fill:#ffffff"
     d="m 267.96932,41.980219 c 0,3.999804 2.17194,7.553809 6.86609,7.553809 3.25681,0 5.23327,-1.430713 6.22084,-4.245258 h 5.331 c -1.23346,5.582211 -5.97361,8.691302 -11.55184,8.691302 -8.00093,0 -12.49695,-5.58 -12.49695,-13.429681 0,-7.262358 4.74413,-13.483636 12.34747,-13.483636 8.0487,0 12.9883,7.259263 12.04894,14.913022 h -18.76555 l 0,4.42e-4 z m 13.13646,-3.703931 c -0.19725,-3.555774 -2.61907,-6.763489 -6.41985,-6.763489 -3.9003,0 -6.56845,2.960934 -6.71794,6.763489 h 13.13779 z"
     inkscape:connector-curvature="0"
     id="path3000" /></svg>